<svg xmlns="http://www.w3.org/2000/svg" width="640" height="640" viewBox="0 0 640 640">
  <path d="M 513.4 480.0 L 516.1 487.4 L 515.0 494.7 L 511.0 501.1 L 506.1 506.6 L 501.8 512.1 L 497.8 517.8 L 493.0 523.0 L 486.5 525.8 L 479.0 525.8 L 471.8 524.0 L 465.6 522.7 L 460.0 523.5 L 453.9 526.1 L 447.1 528.3 L 440.1 527.9 L 434.2 524.7 L 429.4 519.9 L 424.9 515.1 L 419.6 511.0 L 414.0 506.6 L 409.7 500.8 L 408.6 493.8 L 410.7 486.5 L 414.3 480.0 L 416.9 474.3 L 417.3 468.6 L 416.7 462.1 L 417.0 455.2 L 419.7 449.1 L 424.4 444.4 L 429.6 440.4 L 434.5 435.9 L 439.4 430.3 L 445.2 424.7 L 452.3 421.6 L 460.0 422.6 L 467.0 427.1 L 472.7 432.8 L 477.6 437.5 L 482.8 440.6 L 488.2 443.3 L 492.8 447.2 L 495.8 452.6 L 497.2 458.5 L 498.9 463.9 L 502.5 468.6 L 508.0 473.7 L 513.4 480.0 Z" fill="none" stroke="#7fa3c9" stroke-width="1.1" stroke-opacity="0.320" />
  <path d="M 556.9 480.0 L 552.5 492.2 L 547.7 503.5 L 543.9 514.7 L 539.9 526.1 L 533.8 536.6 L 524.7 544.7 L 513.7 550.0 L 502.7 553.9 L 492.7 558.9 L 483.0 565.9 L 472.3 573.5 L 460.0 578.6 L 447.0 578.9 L 434.6 574.7 L 423.4 568.3 L 412.7 561.9 L 402.0 555.6 L 391.8 548.2 L 384.3 538.1 L 380.7 525.8 L 380.7 512.9 L 381.5 501.0 L 380.5 490.5 L 377.1 480.0 L 373.5 468.6 L 372.3 456.5 L 375.0 444.8 L 380.5 434.1 L 386.7 423.8 L 392.8 412.8 L 399.5 401.1 L 408.5 390.8 L 420.4 384.4 L 434.1 383.4 L 447.7 386.4 L 460.0 390.4 L 471.4 393.1 L 482.9 394.7 L 494.3 397.2 L 504.7 402.6 L 513.1 410.7 L 520.1 419.9 L 527.4 428.3 L 536.3 435.9 L 546.2 444.3 L 554.4 454.7 L 558.2 467.1 L 556.9 480.0 Z" fill="none" stroke="#7fa3c9" stroke-width="1.1" stroke-opacity="0.292" />
  <path d="M 588.0 480.0 L 586.9 496.7 L 585.0 513.5 L 579.6 529.5 L 570.2 543.6 L 558.5 555.6 L 547.2 567.2 L 537.1 580.5 L 526.7 595.6 L 513.9 610.0 L 497.5 620.1 L 478.9 623.9 L 460.0 622.4 L 441.8 618.6 L 424.0 614.5 L 406.3 609.6 L 389.7 601.7 L 376.2 589.2 L 366.9 573.1 L 360.7 556.2 L 354.9 540.7 L 347.0 526.8 L 337.6 512.8 L 329.5 497.2 L 325.7 480.0 L 327.1 462.5 L 331.6 445.6 L 336.7 428.9 L 341.6 411.7 L 348.2 394.2 L 358.7 378.7 L 373.9 367.8 L 391.9 362.1 L 410.1 359.6 L 427.1 357.1 L 443.3 353.1 L 460.0 348.7 L 477.5 347.0 L 494.8 350.1 L 510.8 357.3 L 525.8 366.1 L 541.1 374.4 L 557.4 382.6 L 573.2 393.1 L 585.5 407.5 L 591.8 425.4 L 592.3 444.5 L 590.0 462.9 L 588.0 480.0 Z" fill="none" stroke="#7fa3c9" stroke-width="1.1" stroke-opacity="0.264" />
  <path d="M 630.8 480.0 L 628.2 502.1 L 620.6 523.0 L 610.9 542.5 L 602.2 562.1 L 594.7 583.3 L 585.8 605.8 L 572.4 626.4 L 553.4 641.7 L 530.5 650.3 L 506.6 654.1 L 483.2 656.4 L 460.0 658.5 L 436.4 659.0 L 413.2 654.5 L 392.2 643.7 L 374.3 628.4 L 358.6 612.1 L 342.6 597.4 L 324.7 583.8 L 306.6 568.6 L 291.8 549.7 L 283.4 527.3 L 281.2 503.5 L 282.3 480.0 L 284.1 456.8 L 286.4 433.5 L 291.9 410.4 L 303.3 389.5 L 320.7 373.1 L 341.1 361.1 L 361.0 351.0 L 379.0 339.7 L 396.5 326.6 L 415.5 313.9 L 437.0 305.5 L 460.0 303.0 L 483.0 305.1 L 505.9 308.7 L 529.5 312.3 L 553.8 317.6 L 576.9 327.6 L 595.6 344.4 L 607.7 366.6 L 614.3 390.9 L 618.5 414.3 L 623.3 436.3 L 628.3 457.8 L 630.8 480.0 Z" fill="none" stroke="#7fa3c9" stroke-width="1.1" stroke-opacity="0.236" />
  <path d="M 672.1 480.0 L 668.5 507.5 L 665.7 535.1 L 662.9 564.0 L 656.4 593.4 L 642.4 620.0 L 620.7 640.7 L 594.4 655.2 L 567.3 665.9 L 541.2 675.9 L 515.2 686.0 L 488.1 693.6 L 460.0 695.0 L 432.4 689.5 L 406.4 679.9 L 381.2 670.2 L 354.8 662.2 L 326.6 653.9 L 298.8 641.2 L 275.5 621.6 L 259.4 595.8 L 249.6 567.2 L 243.1 538.1 L 237.6 509.3 L 234.2 480.0 L 236.4 450.6 L 246.6 422.8 L 263.8 398.8 L 283.7 378.2 L 302.0 358.7 L 317.8 337.8 L 333.8 315.5 L 353.1 294.8 L 376.9 279.3 L 403.8 270.2 L 431.7 265.0 L 460.0 260.9 L 489.3 257.1 L 519.8 256.7 L 549.6 263.6 L 575.6 279.7 L 596.2 302.5 L 612.5 327.5 L 627.6 351.4 L 643.5 374.1 L 658.6 397.7 L 669.5 423.9 L 673.6 451.9 L 672.1 480.0 Z" fill="none" stroke="#7fa3c9" stroke-width="1.1" stroke-opacity="0.208" />
  <path d="M 726.1 480.0 L 731.4 515.7 L 729.4 552.2 L 716.5 586.3 L 693.9 615.0 L 666.2 638.3 L 638.5 658.5 L 612.2 678.4 L 585.6 697.6 L 556.6 713.1 L 524.8 721.8 L 492.1 723.7 L 460.0 722.8 L 428.0 723.0 L 394.4 724.8 L 358.7 724.5 L 323.3 716.7 L 292.0 698.9 L 267.0 673.0 L 247.1 643.4 L 229.5 613.1 L 213.0 582.3 L 200.0 549.7 L 194.5 515.0 L 198.5 480.0 L 209.8 447.1 L 223.0 416.5 L 234.1 386.4 L 243.7 355.1 L 255.6 323.2 L 274.0 294.0 L 299.5 270.8 L 329.5 253.9 L 360.8 240.6 L 392.5 228.0 L 425.3 216.6 L 460.0 210.3 L 495.1 213.5 L 527.9 226.7 L 556.9 246.0 L 583.4 266.2 L 610.1 284.4 L 637.9 302.1 L 664.6 323.0 L 686.5 349.2 L 701.3 380.0 L 710.8 412.8 L 718.4 446.0 L 726.1 480.0 Z" fill="none" stroke="#7fa3c9" stroke-width="1.1" stroke-opacity="0.180" />
  <path d="M 785.2 480.0 L 777.6 521.8 L 759.4 560.2 L 736.8 594.6 L 714.5 627.0 L 693.2 659.0 L 669.7 689.7 L 640.8 715.6 L 606.8 734.3 L 570.5 746.8 L 534.3 757.3 L 498.1 769.2 L 460.0 781.4 L 419.4 788.6 L 378.2 785.1 L 340.0 769.6 L 306.6 745.7 L 276.8 718.8 L 248.1 691.9 L 220.3 664.0 L 196.3 632.2 L 180.3 595.9 L 173.4 556.8 L 172.3 517.9 L 171.8 480.0 L 169.1 441.7 L 167.0 401.5 L 171.0 360.3 L 185.6 321.6 L 210.3 288.4 L 240.9 260.9 L 273.2 236.6 L 306.2 213.6 L 341.3 193.5 L 379.8 180.7 L 420.3 178.8 L 460.0 186.9 L 496.9 199.4 L 532.1 210.7 L 568.0 219.3 L 605.2 228.5 L 641.6 243.4 L 673.5 266.5 L 699.6 296.2 L 721.7 328.9 L 742.9 362.8 L 763.6 398.7 L 779.6 437.9 L 785.2 480.0 Z" fill="none" stroke="#7fa3c9" stroke-width="1.1" stroke-opacity="0.152" />
</svg>
