<svg xmlns="http://www.w3.org/2000/svg" width="220" height="220" viewBox="0 0 220 220">
  <path d="M 59.0 44.0 L 61.2 47.7 L 61.7 51.7 L 60.3 55.3 L 57.8 58.3 L 55.0 60.9 L 52.6 63.6 L 50.1 66.3 L 47.1 68.4 L 43.4 69.1 L 39.5 68.3 L 36.0 66.8 L 33.0 66.0 L 30.1 66.3 L 26.8 67.3 L 23.2 67.8 L 19.8 66.9 L 17.1 64.8 L 14.8 62.2 L 12.5 59.7 L 9.7 57.4 L 7.0 54.8 L 5.3 51.4 L 5.4 47.6 L 7.0 44.0 L 9.1 40.9 L 10.5 38.0 L 11.0 34.9 L 11.2 31.4 L 12.3 28.1 L 14.4 25.4 L 17.3 23.5 L 20.2 21.9 L 22.9 19.7 L 25.8 17.1 L 29.2 14.8 L 33.0 14.0 L 36.8 15.3 L 40.0 18.0 L 42.5 21.0 L 44.9 23.4 L 47.5 25.1 L 50.2 26.8 L 52.2 29.3 L 53.3 32.3 L 53.7 35.4 L 54.5 38.2 L 56.4 40.9 L 59.0 44.0 Z" fill="none" stroke="#9fb8d6" stroke-width="1" stroke-opacity="0.220" />
  <path d="M 82.5 44.0 L 82.3 50.5 L 79.9 56.6 L 76.7 62.1 L 73.6 67.4 L 70.6 72.8 L 66.9 77.9 L 61.9 81.7 L 55.9 83.7 L 49.7 84.3 L 44.0 84.9 L 38.6 86.4 L 33.0 88.7 L 26.9 90.5 L 20.5 90.5 L 14.7 88.3 L 9.5 84.6 L 4.8 80.7 L 0.0 77.0 L -4.8 73.0 L -8.7 68.1 L -10.7 62.1 L -10.6 55.7 L -9.3 49.6 L -8.2 44.0 L -8.3 38.6 L -8.9 32.8 L -8.9 26.7 L -7.1 20.8 L -3.7 15.8 L 0.4 11.4 L 4.5 6.9 L 8.7 1.9 L 13.6 -2.8 L 19.6 -6.0 L 26.3 -6.5 L 33.0 -4.6 L 39.0 -1.4 L 44.4 1.6 L 49.6 3.8 L 55.0 6.0 L 59.8 9.0 L 63.6 13.4 L 66.4 18.4 L 68.9 23.3 L 72.1 27.8 L 76.2 32.4 L 80.2 37.8 L 82.5 44.0 Z" fill="none" stroke="#9fb8d6" stroke-width="1" stroke-opacity="0.200" />
  <path d="M 101.3 44.0 L 98.7 52.6 L 95.8 60.8 L 93.2 69.0 L 90.2 77.0 L 85.6 84.4 L 79.2 90.2 L 71.6 94.3 L 64.0 97.7 L 56.9 101.7 L 49.8 106.6 L 41.9 111.4 L 33.0 114.1 L 23.8 113.9 L 15.1 111.0 L 7.0 106.8 L -0.8 102.5 L -8.4 98.0 L -15.5 92.5 L -20.7 85.2 L -23.5 76.6 L -24.3 67.7 L -24.6 59.4 L -25.9 51.8 L -28.2 44.0 L -30.1 35.7 L -30.2 27.1 L -28.0 18.7 L -24.0 11.1 L -19.6 3.6 L -15.1 -4.1 L -9.9 -11.9 L -3.2 -18.6 L 5.4 -22.7 L 14.9 -23.6 L 24.3 -22.2 L 33.0 -20.3 L 41.3 -19.0 L 49.6 -18.0 L 57.8 -15.9 L 65.3 -11.9 L 71.5 -6.2 L 76.9 0.1 L 82.5 6.0 L 88.8 11.8 L 95.2 18.2 L 100.2 26.0 L 102.3 34.9 L 101.3 44.0 Z" fill="none" stroke="#9fb8d6" stroke-width="1" stroke-opacity="0.180" />
  <path d="M 213.6 165.0 L 212.0 168.3 L 211.0 171.4 L 210.3 174.7 L 209.3 177.9 L 207.2 180.5 L 204.3 182.3 L 201.2 183.5 L 198.5 185.0 L 196.3 187.5 L 193.9 190.7 L 190.7 193.4 L 187.0 194.6 L 183.2 193.9 L 179.7 192.2 L 176.5 190.3 L 173.3 188.8 L 170.0 187.1 L 167.4 184.6 L 166.1 181.1 L 166.1 177.1 L 166.7 173.4 L 166.6 170.5 L 165.4 167.8 L 163.5 165.0 L 162.1 161.7 L 162.0 158.3 L 163.1 155.1 L 164.6 152.1 L 165.9 148.8 L 167.1 145.1 L 168.9 141.3 L 171.8 138.7 L 175.7 137.8 L 179.9 138.6 L 183.7 139.9 L 187.0 140.7 L 190.2 140.7 L 193.5 140.7 L 196.8 141.5 L 199.5 143.4 L 201.6 146.0 L 203.7 148.3 L 206.5 150.1 L 209.8 151.8 L 213.1 154.2 L 214.9 157.5 L 214.9 161.3 L 213.6 165.0 Z" fill="none" stroke="#9fb8d6" stroke-width="1" stroke-opacity="0.220" />
  <path d="M 230.6 165.0 L 230.2 170.7 L 229.6 176.4 L 227.8 181.9 L 224.5 186.7 L 220.4 190.6 L 216.5 194.5 L 213.1 199.1 L 209.8 204.6 L 205.6 209.9 L 200.1 213.7 L 193.6 215.1 L 187.0 214.5 L 180.7 213.0 L 174.5 211.5 L 168.4 209.8 L 162.7 207.1 L 158.0 202.7 L 155.1 196.9 L 153.3 190.9 L 151.6 185.4 L 149.0 180.8 L 145.5 176.1 L 142.4 170.9 L 140.9 165.0 L 141.4 159.0 L 143.0 153.2 L 144.7 147.5 L 146.3 141.5 L 148.3 135.3 L 151.8 129.8 L 157.1 126.0 L 163.5 124.3 L 169.9 123.8 L 175.8 123.2 L 181.3 121.8 L 187.0 120.1 L 193.0 119.4 L 199.0 120.4 L 204.4 123.0 L 209.5 126.1 L 214.7 128.8 L 220.5 131.5 L 226.2 134.9 L 230.7 139.8 L 232.8 146.0 L 232.7 152.8 L 231.5 159.1 L 230.6 165.0 Z" fill="none" stroke="#9fb8d6" stroke-width="1" stroke-opacity="0.200" />
  <path d="M 250.3 165.0 L 250.0 173.3 L 247.7 181.3 L 243.8 188.5 L 239.4 195.3 L 235.6 202.3 L 232.3 210.3 L 228.1 218.6 L 222.1 225.7 L 214.1 230.4 L 205.0 232.3 L 195.9 232.6 L 187.0 232.6 L 178.1 232.4 L 169.2 231.3 L 160.9 228.1 L 153.9 222.4 L 148.3 215.4 L 143.5 208.5 L 138.2 202.5 L 132.1 196.7 L 126.1 190.2 L 121.7 182.5 L 119.9 173.8 L 120.3 165.0 L 121.6 156.4 L 122.8 147.8 L 124.4 139.1 L 127.4 130.6 L 132.8 123.4 L 140.3 118.3 L 148.6 114.9 L 156.4 112.0 L 163.6 108.4 L 170.7 104.1 L 178.5 100.3 L 187.0 98.6 L 195.7 99.1 L 204.1 101.2 L 212.5 103.5 L 221.2 105.8 L 230.1 108.8 L 238.2 113.8 L 244.0 121.3 L 247.0 130.4 L 248.0 139.7 L 248.5 148.5 L 249.4 156.8 L 250.3 165.0 Z" fill="none" stroke="#9fb8d6" stroke-width="1" stroke-opacity="0.180" />
</svg>
